<svg xmlns="http://www.w3.org/2000/svg" viewBox="0 0 900 320" fill="none">
  <defs>
    <radialGradient id="glow" cx="75%" cy="30%" r="50%">
      <stop offset="0%" stop-color="#f97316" stop-opacity="0.15"/>
      <stop offset="100%" stop-color="#09090b" stop-opacity="0"/>
    </radialGradient>
    <radialGradient id="glow2" cx="20%" cy="80%" r="40%">
      <stop offset="0%" stop-color="#06b6d4" stop-opacity="0.08"/>
      <stop offset="100%" stop-color="#09090b" stop-opacity="0"/>
    </radialGradient>
    <pattern id="dots" x="0" y="0" width="20" height="20" patternUnits="userSpaceOnUse">
      <circle cx="10" cy="10" r="0.7" fill="#3f3f46" opacity="0.5"/>
    </pattern>
  </defs>
  <!-- bg -->
  <rect width="900" height="320" rx="12" fill="#09090b"/>
  <rect width="900" height="320" rx="12" fill="url(#dots)"/>
  <rect width="900" height="320" rx="12" fill="url(#glow)"/>
  <rect width="900" height="320" rx="12" fill="url(#glow2)"/>
  <!-- border -->
  <rect x="0.5" y="0.5" width="899" height="319" rx="12" stroke="#27272a" stroke-width="1"/>
  <!-- tag -->
  <rect x="60" y="60" width="160" height="26" rx="13" fill="none" stroke="#27272a" stroke-width="1"/>
  <circle cx="76" cy="73" r="4" fill="#f97316" opacity="0.9"/>
  <text x="88" y="77" font-family="monospace" font-size="10" letter-spacing="2" fill="#a1a1aa">ENGINEERING</text>
  <!-- title -->
  <text x="60" y="145" font-family="system-ui, -apple-system, sans-serif" font-weight="800" font-size="56" fill="#fafafa">Essential Hustle</text>
  <text x="548" y="145" font-family="system-ui, -apple-system, sans-serif" font-weight="800" font-size="56" fill="#f97316">.</text>
  <!-- subtitle -->
  <text x="60" y="185" font-family="system-ui, sans-serif" font-size="18" fill="#a1a1aa">We build what others outsource.</text>
  <!-- tech tags -->
  <rect x="60" y="230" width="72" height="28" rx="14" fill="#111113" stroke="#27272a" stroke-width="1"/>
  <text x="76" y="249" font-family="monospace" font-size="11" fill="#a1a1aa">Next.js</text>
  <rect x="142" y="230" width="66" height="28" rx="14" fill="#111113" stroke="#27272a" stroke-width="1"/>
  <text x="155" y="249" font-family="monospace" font-size="11" fill="#a1a1aa">React</text>
  <rect x="218" y="230" width="92" height="28" rx="14" fill="#111113" stroke="#27272a" stroke-width="1"/>
  <text x="230" y="249" font-family="monospace" font-size="11" fill="#a1a1aa">TypeScript</text>
  <rect x="320" y="230" width="76" height="28" rx="14" fill="#111113" stroke="#27272a" stroke-width="1"/>
  <text x="332" y="249" font-family="monospace" font-size="11" fill="#a1a1aa">Tailwind</text>
  <rect x="406" y="230" width="114" height="28" rx="14" fill="#111113" stroke="#27272a" stroke-width="1"/>
  <text x="418" y="249" font-family="monospace" font-size="11" fill="#a1a1aa">Framer Motion</text>
  <!-- version -->
  <text x="60" y="295" font-family="monospace" font-size="11" letter-spacing="1.5" fill="#71717a">v0.3.1</text>
  <!-- side decoration -->
  <line x1="840" y1="60" x2="840" y2="260" stroke="#27272a" stroke-width="1" stroke-dasharray="4 4"/>
  <text x="855" y="168" font-family="monospace" font-size="9" letter-spacing="3" fill="#3f3f46" transform="rotate(90, 855, 168)">essentialhustle.dev</text>
</svg>
