<svg xmlns="http://www.w3.org/2000/svg" viewBox="0 0 900 220" fill="none">
  <defs>
    <pattern id="ddots" x="0" y="0" width="16" height="16" patternUnits="userSpaceOnUse">
      <circle cx="8" cy="8" r="0.5" fill="#3f3f46" opacity="0.3"/>
    </pattern>
  </defs>

  <!-- Color palette -->
  <g transform="translate(0, 0)">
    <rect width="440" height="100" rx="10" fill="#09090b" stroke="#27272a" stroke-width="1"/>
    <rect width="440" height="100" rx="10" fill="url(#ddots)"/>
    <rect x="20" y="20" width="18" height="18" rx="4" fill="#09090b" stroke="#f97316" stroke-width="1.5"/>
    <rect x="24" y="24" width="10" height="10" rx="2" fill="#f97316" opacity="0.4"/>
    <text x="50" y="35" font-family="monospace" font-size="12" letter-spacing="2" fill="#f97316">COLOR</text>
    <text x="20" y="58" font-family="system-ui, sans-serif" font-size="12" fill="#a1a1aa">Base </text>
    <text x="50" y="58" font-family="monospace" font-size="11" fill="#71717a">#09090b</text>
    <text x="120" y="58" font-family="system-ui, sans-serif" font-size="12" fill="#a1a1aa"> — almost black but not void.</text>
    <text x="20" y="78" font-family="system-ui, sans-serif" font-size="12" fill="#a1a1aa">Orange </text>
    <text x="68" y="78" font-family="monospace" font-size="11" fill="#f97316">#f97316</text>
    <text x="136" y="78" font-family="system-ui, sans-serif" font-size="12" fill="#a1a1aa"> + cyan </text>
    <text x="182" y="78" font-family="monospace" font-size="11" fill="#06b6d4">#06b6d4</text>
    <text x="250" y="78" font-family="system-ui, sans-serif" font-size="12" fill="#a1a1aa"> — opposite ends.</text>
  </g>

  <!-- Typography -->
  <g transform="translate(460, 0)">
    <rect width="440" height="100" rx="10" fill="#09090b" stroke="#27272a" stroke-width="1"/>
    <rect width="440" height="100" rx="10" fill="url(#ddots)"/>
    <g transform="translate(20, 20)" stroke="#06b6d4" stroke-width="1.5" stroke-linecap="round" fill="none">
      <path d="M4 20L12 4L20 20"/>
      <path d="M7 14h10"/>
    </g>
    <text x="50" y="35" font-family="monospace" font-size="12" letter-spacing="2" fill="#06b6d4">TYPOGRAPHY</text>
    <text x="20" y="58" font-family="system-ui, sans-serif" font-weight="600" font-size="12" fill="#a1a1aa">Space Grotesk</text>
    <text x="130" y="58" font-family="system-ui, sans-serif" font-size="11" fill="#71717a">headlines — geometric, wide</text>
    <text x="20" y="74" font-family="system-ui, sans-serif" font-size="12" fill="#a1a1aa">Inter</text>
    <text x="52" y="74" font-family="system-ui, sans-serif" font-size="11" fill="#71717a">body — neutral, disappears</text>
    <text x="20" y="90" font-family="monospace" font-size="12" fill="#a1a1aa">JetBrains Mono</text>
    <text x="144" y="90" font-family="system-ui, sans-serif" font-size="11" fill="#71717a">tags, code — signals "technical"</text>
  </g>

  <!-- Layout hero -->
  <g transform="translate(0, 116)">
    <rect width="440" height="100" rx="10" fill="#09090b" stroke="#27272a" stroke-width="1"/>
    <rect width="440" height="100" rx="10" fill="url(#ddots)"/>
    <g transform="translate(20, 20)" stroke="#f97316" stroke-width="1.5" stroke-linecap="round" fill="none">
      <rect x="2" y="2" width="20" height="20" rx="3"/>
      <path d="M7 7h10M7 12h6M7 17h8"/>
    </g>
    <text x="50" y="35" font-family="monospace" font-size="12" letter-spacing="2" fill="#f97316">LAYOUT</text>
    <text x="20" y="58" font-family="system-ui, sans-serif" font-size="12" fill="#a1a1aa">Hero is asymmetric — content left, side label at</text>
    <text x="20" y="74" font-family="monospace" font-size="11" fill="#71717a">rotate(-90deg)</text>
    <text x="128" y="74" font-family="system-ui, sans-serif" font-size="12" fill="#a1a1aa">floating right.</text>
    <text x="20" y="90" font-family="system-ui, sans-serif" font-size="12" fill="#a1a1aa">Services: 2×2 bento grid. Projects: editorial rows.</text>
  </g>

  <!-- Animations -->
  <g transform="translate(460, 116)">
    <rect width="440" height="100" rx="10" fill="#09090b" stroke="#27272a" stroke-width="1"/>
    <rect width="440" height="100" rx="10" fill="url(#ddots)"/>
    <g transform="translate(20, 18)" stroke="#06b6d4" stroke-width="1.5" stroke-linecap="round" fill="none">
      <circle cx="12" cy="12" r="10"/>
      <path d="M12 6v6l4 2"/>
    </g>
    <text x="50" y="35" font-family="monospace" font-size="12" letter-spacing="2" fill="#06b6d4">MOTION</text>
    <text x="20" y="58" font-family="system-ui, sans-serif" font-size="12" fill="#a1a1aa">Framer Motion — stagger reveals, viewport-triggered.</text>
    <text x="20" y="74" font-family="system-ui, sans-serif" font-size="12" fill="#a1a1aa">Magnetic buttons via </text>
    <text x="174" y="74" font-family="monospace" font-size="11" fill="#71717a">mousemove</text>
    <text x="252" y="74" font-family="system-ui, sans-serif" font-size="12" fill="#a1a1aa"> offset — no library.</text>
    <text x="20" y="90" font-family="system-ui, sans-serif" font-size="12" fill="#a1a1aa">Grain: feTurbulence SVG filter, opacity 0.03.</text>
  </g>
</svg>
