<svg xmlns="http://www.w3.org/2000/svg" viewBox="0 0 900 140" fill="none">
  <rect width="900" height="140" rx="10" fill="#09090b" stroke="#27272a" stroke-width="1"/>
  <!-- Next.js -->
  <g transform="translate(40, 25)">
    <rect width="120" height="90" rx="8" fill="#111113" stroke="#27272a" stroke-width="1"/>
    <svg x="44" y="16" width="32" height="32" viewBox="0 0 24 24" fill="#fafafa">
      <path d="M11.572 0c-.176 0-.31.001-.358.007a19.76 19.76 0 0 1-.364.033C7.443.346 4.25 2.185 2.228 5.012a11.875 11.875 0 0 0-2.119 5.243c-.096.66-.108.854-.108 1.747s.012 1.089.108 1.748c.652 4.506 3.86 8.292 8.209 9.695.779.25 1.6.422 2.534.525.363.04 1.935.04 2.299 0 1.611-.178 2.977-.577 4.323-1.264.207-.106.247-.134.219-.158-.02-.013-.9-1.193-1.955-2.62l-1.919-2.592-2.404-3.558a338.739 338.739 0 0 0-2.422-3.556c-.009-.002-.018 1.579-.023 3.51-.007 3.38-.01 3.515-.052 3.595a.426.426 0 0 1-.206.214c-.075.037-.14.044-.495.044H7.81l-.108-.068a.44.44 0 0 1-.157-.172l-.05-.106.006-4.703.007-4.705.072-.092a.645.645 0 0 1 .174-.143c.096-.047.134-.051.54-.051.478 0 .558.018.682.154.035.038 1.337 1.999 2.895 4.361a10760.433 10760.433 0 0 0 4.735 7.17l1.9 2.879.096-.063a12.317 12.317 0 0 0 2.466-2.163 11.944 11.944 0 0 0 2.824-6.134c.096-.66.108-.854.108-1.748 0-.893-.012-1.088-.108-1.747-.652-4.506-3.86-8.292-8.208-9.695a12.597 12.597 0 0 0-2.499-.523A33.119 33.119 0 0 0 11.572 0zm4.069 7.217c.347 0 .408.005.486.047a.473.473 0 0 1 .237.277c.018.06.023 1.365.018 4.304l-.006 4.218-.744-1.14-.746-1.14v-3.066c0-1.982.01-3.097.023-3.15a.478.478 0 0 1 .233-.296c.096-.05.13-.054.5-.054z"/>
    </svg>
    <text x="60" y="72" font-family="monospace" font-size="11" fill="#a1a1aa" text-anchor="middle">Next.js 16</text>
  </g>
  <!-- React -->
  <g transform="translate(180, 25)">
    <rect width="120" height="90" rx="8" fill="#111113" stroke="#27272a" stroke-width="1"/>
    <svg x="44" y="14" width="32" height="32" viewBox="0 0 24 24" fill="#61dafb">
      <circle cx="12" cy="11.87" r="2.15"/>
      <path d="M12 6.78c3.12 0 5.97.53 8.09 1.42.93.39 1.74.86 2.36 1.42.65.59 1.05 1.26 1.05 2.01s-.4 1.42-1.05 2.01c-.62.56-1.43 1.03-2.36 1.42-2.12.89-4.97 1.42-8.09 1.42s-5.97-.53-8.09-1.42c-.93-.39-1.74-.86-2.36-1.42C.9 13.05.5 12.38.5 11.63s.4-1.42 1.05-2.01c.62-.56 1.43-1.03 2.36-1.42C6.03 7.31 8.88 6.78 12 6.78z" fill="none" stroke="#61dafb" stroke-width="1"/>
      <path d="M8.3 9.32c1.56-2.7 3.56-4.87 5.42-5.94.82-.47 1.6-.76 2.31-.84.74-.09 1.37.1 1.8.56.42.47.6 1.12.52 1.9-.07.73-.35 1.56-.8 2.46-.95 1.88-2.62 3.97-4.77 5.7-2.15 1.72-4.46 2.93-6.48 3.44-.89.23-1.7.32-2.4.27-.74-.06-1.33-.3-1.75-.76-.43-.47-.6-1.12-.53-1.9.07-.73.35-1.56.8-2.46.49-.95 1.14-1.93 1.93-2.88" fill="none" stroke="#61dafb" stroke-width="1"/>
      <path d="M8.3 14.42c-1.56-2.7-2.45-5.38-2.62-7.33-.07-.86-.01-1.63.2-2.28.22-.68.62-1.19 1.17-1.46.56-.28 1.22-.28 1.95-.02.69.24 1.44.7 2.24 1.34 1.66 1.35 3.33 3.44 4.53 5.86 1.2 2.42 1.82 4.82 1.85 6.7.01.83-.1 1.57-.33 2.18-.24.65-.64 1.12-1.2 1.4-.55.27-1.21.27-1.94.01-.69-.24-1.44-.7-2.24-1.34-.86-.7-1.75-1.6-2.61-2.66" fill="none" stroke="#61dafb" stroke-width="1"/>
    </svg>
    <text x="60" y="72" font-family="monospace" font-size="11" fill="#a1a1aa" text-anchor="middle">React 19</text>
  </g>
  <!-- TypeScript -->
  <g transform="translate(320, 25)">
    <rect width="120" height="90" rx="8" fill="#111113" stroke="#27272a" stroke-width="1"/>
    <svg x="44" y="14" width="32" height="32" viewBox="0 0 24 24" fill="#3178c6">
      <path d="M1.125 0C.502 0 0 .502 0 1.125v21.75C0 23.498.502 24 1.125 24h21.75c.623 0 1.125-.502 1.125-1.125V1.125C24 .502 23.498 0 22.875 0zm17.363 9.75c.612 0 1.154.037 1.627.111a6.38 6.38 0 0 1 1.306.34v2.458a3.95 3.95 0 0 0-.643-.361 5.093 5.093 0 0 0-.717-.26 5.453 5.453 0 0 0-1.426-.2c-.3 0-.573.028-.819.086a2.1 2.1 0 0 0-.623.242c-.17.104-.3.229-.393.374a.888.888 0 0 0-.14.49c0 .196.053.373.156.529.104.156.252.304.443.444s.423.276.696.41c.273.135.582.274.926.416.47.197.892.407 1.266.628.374.222.695.473.963.753.268.279.472.598.614.957.142.359.214.776.214 1.253 0 .657-.125 1.21-.373 1.656a3.033 3.033 0 0 1-1.012 1.085 4.38 4.38 0 0 1-1.487.596c-.566.12-1.163.18-1.79.18a9.916 9.916 0 0 1-1.84-.164 5.544 5.544 0 0 1-1.512-.493v-2.63a5.033 5.033 0 0 0 3.237 1.2c.333 0 .624-.03.872-.09.249-.06.456-.144.623-.25.166-.108.29-.234.373-.38a1.023 1.023 0 0 0-.074-1.089 2.12 2.12 0 0 0-.537-.5 5.597 5.597 0 0 0-.807-.444 27.72 27.72 0 0 0-1.007-.436c-.918-.383-1.602-.852-2.053-1.405-.45-.553-.676-1.222-.676-2.005 0-.614.123-1.141.369-1.582.246-.441.58-.804 1.004-1.089a4.494 4.494 0 0 1 1.47-.629 7.536 7.536 0 0 1 1.77-.201zm-15.113.188h9.563v2.166H9.506v9.646H6.789v-9.646H3.375z"/>
    </svg>
    <text x="60" y="72" font-family="monospace" font-size="11" fill="#a1a1aa" text-anchor="middle">TypeScript 5</text>
  </g>
  <!-- Tailwind -->
  <g transform="translate(460, 25)">
    <rect width="120" height="90" rx="8" fill="#111113" stroke="#27272a" stroke-width="1"/>
    <svg x="44" y="16" width="32" height="32" viewBox="0 0 24 24" fill="#06b6d4">
      <path d="M12.001 4.8c-3.2 0-5.2 1.6-6 4.8 1.2-1.6 2.6-2.2 4.2-1.8.913.228 1.565.89 2.288 1.624C13.666 10.618 15.027 12 18.001 12c3.2 0 5.2-1.6 6-4.8-1.2 1.6-2.6 2.2-4.2 1.8-.913-.228-1.565-.89-2.288-1.624C16.337 6.182 14.976 4.8 12.001 4.8zm-6 7.2c-3.2 0-5.2 1.6-6 4.8 1.2-1.6 2.6-2.2 4.2-1.8.913.228 1.565.89 2.288 1.624 1.177 1.194 2.538 2.576 5.512 2.576 3.2 0 5.2-1.6 6-4.8-1.2 1.6-2.6 2.2-4.2 1.8-.913-.228-1.565-.89-2.288-1.624C10.337 13.382 8.976 12 6.001 12z"/>
    </svg>
    <text x="60" y="72" font-family="monospace" font-size="11" fill="#a1a1aa" text-anchor="middle">Tailwind 4</text>
  </g>
  <!-- Framer Motion -->
  <g transform="translate(600, 25)">
    <rect width="120" height="90" rx="8" fill="#111113" stroke="#27272a" stroke-width="1"/>
    <svg x="44" y="14" width="32" height="32" viewBox="0 0 24 24" fill="#fff">
      <path d="M4 0h16v8h-8zM4 8h8l8 8H4zM4 16h8v8z"/>
    </svg>
    <text x="60" y="72" font-family="monospace" font-size="11" fill="#a1a1aa" text-anchor="middle">Motion 12</text>
  </g>
  <!-- Lucide -->
  <g transform="translate(740, 25)">
    <rect width="120" height="90" rx="8" fill="#111113" stroke="#27272a" stroke-width="1"/>
    <svg x="44" y="14" width="32" height="32" viewBox="0 0 24 24" fill="none" stroke="#f97316" stroke-width="1.5" stroke-linecap="round" stroke-linejoin="round">
      <circle cx="12" cy="12" r="10"/>
      <path d="M7 8l-4 4 4 4"/>
      <path d="M17 8l4 4-4 4"/>
      <path d="M14 4l-4 16"/>
    </svg>
    <text x="60" y="72" font-family="monospace" font-size="11" fill="#a1a1aa" text-anchor="middle">Custom SVG</text>
  </g>
</svg>
